<mxfile host="app.diagrams.net" agent="Mozilla/5.0 (Windows NT 10.0; Win64; x64) AppleWebKit/537.36 (KHTML, like Gecko) Chrome/140.0.0.0 Safari/537.36" version="28.2.3" pages="2">
  <diagram name="第 1 页" id="Y8RuoBqMj992lwZ_7esU">
    <mxGraphModel dx="1426" dy="846" grid="1" gridSize="10" guides="1" tooltips="1" connect="1" arrows="1" fold="1" page="1" pageScale="1" pageWidth="827" pageHeight="1169" math="0" shadow="0">
      <root>
        <mxCell id="0" />
        <mxCell id="1" parent="0" />
        <mxCell id="eQCre-HI_L-PQKiPCIDt-1" value="" style="rounded=0;whiteSpace=wrap;html=1;strokeWidth=2;fontStyle=1;fontSize=14;" parent="1" vertex="1">
          <mxGeometry x="70" y="390" width="600" height="300" as="geometry" />
        </mxCell>
        <mxCell id="72UxT2gLkVPk81IvqVQ6-2" value="HDFS" style="rounded=0;whiteSpace=wrap;html=1;fillColor=#d5e8d4;strokeColor=#82b366;fontStyle=1;fontSize=14;" vertex="1" parent="1">
          <mxGeometry x="80" y="590" width="580" height="90" as="geometry" />
        </mxCell>
        <mxCell id="72UxT2gLkVPk81IvqVQ6-3" value="Hive" style="rounded=0;whiteSpace=wrap;html=1;fillColor=#dae8fc;strokeColor=#6c8ebf;fontStyle=1;fontSize=14;" vertex="1" parent="1">
          <mxGeometry x="190" y="470" width="270" height="60" as="geometry" />
        </mxCell>
        <mxCell id="72UxT2gLkVPk81IvqVQ6-4" value="AZ" style="rounded=0;whiteSpace=wrap;html=1;fillColor=#fff2cc;strokeColor=#d6b656;fontStyle=1;fontSize=14;" vertex="1" parent="1">
          <mxGeometry x="80" y="467.5" width="110" height="122.5" as="geometry" />
        </mxCell>
        <mxCell id="72UxT2gLkVPk81IvqVQ6-5" value="MR" style="rounded=0;whiteSpace=wrap;html=1;fillColor=#ffe6cc;strokeColor=#d79b00;fontStyle=1;fontSize=14;" vertex="1" parent="1">
          <mxGeometry x="190" y="535" width="140" height="50" as="geometry" />
        </mxCell>
        <mxCell id="72UxT2gLkVPk81IvqVQ6-6" value="SPARK" style="rounded=0;whiteSpace=wrap;html=1;fillColor=#f8cecc;strokeColor=#b85450;fontStyle=1;fontSize=14;" vertex="1" parent="1">
          <mxGeometry x="335" y="535" width="130" height="50" as="geometry" />
        </mxCell>
        <mxCell id="72UxT2gLkVPk81IvqVQ6-7" value="Flink" style="rounded=0;whiteSpace=wrap;html=1;fillColor=#e1d5e7;strokeColor=#9673a6;fontStyle=1;fontSize=14;" vertex="1" parent="1">
          <mxGeometry x="470" y="480" width="120" height="105" as="geometry" />
        </mxCell>
        <mxCell id="72UxT2gLkVPk81IvqVQ6-8" value="presto" style="rounded=0;whiteSpace=wrap;html=1;fillColor=#6d8764;fontColor=#ffffff;strokeColor=#3A5431;fontStyle=1;fontSize=14;" vertex="1" parent="1">
          <mxGeometry x="80" y="400" width="570" height="60" as="geometry" />
        </mxCell>
        <mxCell id="72UxT2gLkVPk81IvqVQ6-9" value="HBase" style="rounded=0;whiteSpace=wrap;html=1;fillColor=#e3c800;fontColor=#000000;strokeColor=#B09500;fontStyle=1;fontSize=14;" vertex="1" parent="1">
          <mxGeometry x="600" y="480" width="60" height="100" as="geometry" />
        </mxCell>
      </root>
    </mxGraphModel>
  </diagram>
  <diagram id="52P_c9kilATeUorch2ZZ" name="第 2 页">
    <mxGraphModel dx="951" dy="501" grid="1" gridSize="10" guides="1" tooltips="1" connect="1" arrows="1" fold="1" page="1" pageScale="1" pageWidth="827" pageHeight="1169" math="0" shadow="0">
      <root>
        <mxCell id="0" />
        <mxCell id="1" parent="0" />
        <mxCell id="2DUTjnqAUohcPvjKwdeb-3" value="&amp;nbsp; &amp;nbsp; 资&lt;div&gt;&amp;nbsp; &amp;nbsp; 源&lt;/div&gt;&lt;div&gt;&lt;span style=&quot;background-color: transparent;&quot;&gt;&amp;nbsp; &amp;nbsp;&lt;/span&gt;&lt;span style=&quot;background-color: transparent;&quot;&gt;&amp;nbsp;&lt;/span&gt;服&lt;/div&gt;&lt;div&gt;&lt;span style=&quot;background-color: transparent;&quot;&gt;&amp;nbsp; &amp;nbsp;&lt;/span&gt;&lt;span style=&quot;background-color: transparent;&quot;&gt;&amp;nbsp;&lt;/span&gt;务&lt;/div&gt;&lt;div&gt;&lt;span style=&quot;background-color: transparent;&quot;&gt;&amp;nbsp; &amp;nbsp;&lt;/span&gt;&lt;span style=&quot;background-color: transparent;&quot;&gt;&amp;nbsp;&lt;/span&gt;平&lt;/div&gt;&lt;div&gt;&lt;span style=&quot;background-color: transparent;&quot;&gt;&amp;nbsp; &amp;nbsp;&lt;/span&gt;&lt;span style=&quot;background-color: transparent;&quot;&gt;&amp;nbsp;&lt;/span&gt;台&lt;/div&gt;" style="rounded=1;whiteSpace=wrap;html=1;fillColor=#E2E2E2;fontColor=#FF3333;strokeColor=#666666;align=left;fontStyle=1;fontSize=18;strokeWidth=2;" vertex="1" parent="1">
          <mxGeometry x="20" y="240" width="920" height="290" as="geometry" />
        </mxCell>
        <mxCell id="2DUTjnqAUohcPvjKwdeb-4" value="资源目录管理" style="rounded=1;whiteSpace=wrap;html=1;fontStyle=1;fontSize=14;verticalAlign=top;fillColor=none;strokeWidth=2;strokeColor=#FF3333;" vertex="1" parent="1">
          <mxGeometry x="80" y="250" width="720" height="120" as="geometry" />
        </mxCell>
        <mxCell id="2DUTjnqAUohcPvjKwdeb-5" value="面向业务的数据资源目录" style="rounded=0;whiteSpace=wrap;html=1;fillColor=#FFFFFF;strokeColor=#6c8ebf;" vertex="1" parent="1">
          <mxGeometry x="110" y="270" width="190" height="30" as="geometry" />
        </mxCell>
        <mxCell id="2DUTjnqAUohcPvjKwdeb-6" value="数据表-&amp;gt;数据分类-&amp;gt;数据管理" style="rounded=0;whiteSpace=wrap;html=1;" vertex="1" parent="1">
          <mxGeometry x="110" y="320" width="190" height="30" as="geometry" />
        </mxCell>
        <mxCell id="2DUTjnqAUohcPvjKwdeb-7" value="数据API管理" style="rounded=1;whiteSpace=wrap;html=1;fontStyle=1;fontSize=14;verticalAlign=top;fillColor=none;strokeWidth=2;strokeColor=#FF3333;" vertex="1" parent="1">
          <mxGeometry x="80" y="390" width="380" height="100" as="geometry" />
        </mxCell>
        <mxCell id="2DUTjnqAUohcPvjKwdeb-9" value="API管理" style="rounded=0;whiteSpace=wrap;html=1;fillColor=#FFFFFF;strokeColor=#6c8ebf;" vertex="1" parent="1">
          <mxGeometry x="90" y="420" width="100" height="30" as="geometry" />
        </mxCell>
        <mxCell id="2DUTjnqAUohcPvjKwdeb-10" value="API管理" style="rounded=0;whiteSpace=wrap;html=1;fillColor=#FFFFFF;strokeColor=#6c8ebf;" vertex="1" parent="1">
          <mxGeometry x="210" y="420" width="100" height="30" as="geometry" />
        </mxCell>
        <mxCell id="2DUTjnqAUohcPvjKwdeb-11" value="&amp;nbsp; &amp;nbsp; 资&lt;div&gt;&amp;nbsp; &amp;nbsp; 源&lt;/div&gt;&lt;div&gt;&lt;span style=&quot;background-color: transparent;&quot;&gt;&amp;nbsp; &amp;nbsp;&lt;/span&gt;&lt;span style=&quot;background-color: transparent;&quot;&gt;&amp;nbsp;&lt;/span&gt;服&lt;/div&gt;&lt;div&gt;&lt;span style=&quot;background-color: transparent;&quot;&gt;&amp;nbsp; &amp;nbsp;&lt;/span&gt;&lt;span style=&quot;background-color: transparent;&quot;&gt;&amp;nbsp;&lt;/span&gt;务&lt;/div&gt;&lt;div&gt;&lt;span style=&quot;background-color: transparent;&quot;&gt;&amp;nbsp; &amp;nbsp;&lt;/span&gt;&lt;span style=&quot;background-color: transparent;&quot;&gt;&amp;nbsp;&lt;/span&gt;平&lt;/div&gt;&lt;div&gt;&lt;span style=&quot;background-color: transparent;&quot;&gt;&amp;nbsp; &amp;nbsp;&lt;/span&gt;&lt;span style=&quot;background-color: transparent;&quot;&gt;&amp;nbsp;&lt;/span&gt;台&lt;/div&gt;" style="rounded=0;whiteSpace=wrap;html=1;fillColor=#E2E2E2;fontColor=#FF3333;strokeColor=#666666;align=left;fontStyle=1;fontSize=18;strokeWidth=2;" vertex="1" parent="1">
          <mxGeometry x="30" y="550" width="810" height="350" as="geometry" />
        </mxCell>
        <mxCell id="2DUTjnqAUohcPvjKwdeb-12" value="数据资产运营" style="rounded=0;whiteSpace=wrap;html=1;fontStyle=1;fontSize=14;verticalAlign=top;strokeWidth=2;dashed=1;strokeColor=#FF3333;" vertex="1" parent="1">
          <mxGeometry x="80" y="570" width="380" height="170" as="geometry" />
        </mxCell>
        <mxCell id="2DUTjnqAUohcPvjKwdeb-14" value="数据资产管理" style="rounded=0;whiteSpace=wrap;html=1;fillColor=#E2E2E2;fontColor=#000000;strokeColor=none;align=center;fontStyle=1;fontSize=12;strokeWidth=2;verticalAlign=top;" vertex="1" parent="1">
          <mxGeometry x="90" y="603" width="360" height="60" as="geometry" />
        </mxCell>
        <mxCell id="2DUTjnqAUohcPvjKwdeb-15" value="资产地图" style="rounded=0;whiteSpace=wrap;html=1;strokeColor=none;" vertex="1" parent="1">
          <mxGeometry x="100" y="637" width="70" height="20" as="geometry" />
        </mxCell>
        <mxCell id="2DUTjnqAUohcPvjKwdeb-16" value="资产目录" style="rounded=0;whiteSpace=wrap;html=1;strokeColor=none;" vertex="1" parent="1">
          <mxGeometry x="180" y="637" width="80" height="20" as="geometry" />
        </mxCell>
        <mxCell id="2DUTjnqAUohcPvjKwdeb-17" value="资产检索" style="rounded=0;whiteSpace=wrap;html=1;strokeColor=none;" vertex="1" parent="1">
          <mxGeometry x="270" y="637" width="80" height="20" as="geometry" />
        </mxCell>
        <mxCell id="2DUTjnqAUohcPvjKwdeb-18" value="资产授权" style="rounded=0;whiteSpace=wrap;html=1;strokeColor=none;" vertex="1" parent="1">
          <mxGeometry x="360" y="637" width="80" height="20" as="geometry" />
        </mxCell>
        <mxCell id="2DUTjnqAUohcPvjKwdeb-20" value="主数据管理" style="rounded=0;whiteSpace=wrap;html=1;fillColor=#E2E2E2;fontColor=#000000;strokeColor=none;align=center;fontStyle=1;fontSize=12;strokeWidth=2;verticalAlign=top;" vertex="1" parent="1">
          <mxGeometry x="90" y="670" width="360" height="60" as="geometry" />
        </mxCell>
        <mxCell id="2DUTjnqAUohcPvjKwdeb-21" value="主数据上报" style="rounded=0;whiteSpace=wrap;html=1;strokeColor=none;" vertex="1" parent="1">
          <mxGeometry x="100" y="704" width="70" height="20" as="geometry" />
        </mxCell>
        <mxCell id="2DUTjnqAUohcPvjKwdeb-22" value="主数据维护" style="rounded=0;whiteSpace=wrap;html=1;strokeColor=none;" vertex="1" parent="1">
          <mxGeometry x="180" y="704" width="80" height="20" as="geometry" />
        </mxCell>
        <mxCell id="2DUTjnqAUohcPvjKwdeb-23" value="主数据审批" style="rounded=0;whiteSpace=wrap;html=1;strokeColor=none;" vertex="1" parent="1">
          <mxGeometry x="270" y="704" width="80" height="20" as="geometry" />
        </mxCell>
        <mxCell id="2DUTjnqAUohcPvjKwdeb-24" value="主数据分发" style="rounded=0;whiteSpace=wrap;html=1;strokeColor=none;" vertex="1" parent="1">
          <mxGeometry x="360" y="704" width="80" height="20" as="geometry" />
        </mxCell>
        <mxCell id="2DUTjnqAUohcPvjKwdeb-25" value="标签管理" style="rounded=0;whiteSpace=wrap;html=1;fontStyle=1;fontSize=14;verticalAlign=top;strokeWidth=2;dashed=1;strokeColor=#FF3333;" vertex="1" parent="1">
          <mxGeometry x="480" y="570" width="340" height="170" as="geometry" />
        </mxCell>
        <mxCell id="2DUTjnqAUohcPvjKwdeb-27" value="标签管理" style="rounded=0;whiteSpace=wrap;html=1;fillColor=#E2E2E2;fontColor=#000000;strokeColor=none;align=center;fontStyle=1;fontSize=12;strokeWidth=2;verticalAlign=top;" vertex="1" parent="1">
          <mxGeometry x="490" y="610" width="100" height="120" as="geometry" />
        </mxCell>
        <mxCell id="2DUTjnqAUohcPvjKwdeb-30" value="实体管理" style="rounded=0;whiteSpace=wrap;html=1;strokeColor=none;" vertex="1" parent="1">
          <mxGeometry x="505" y="643" width="70" height="20" as="geometry" />
        </mxCell>
        <mxCell id="2DUTjnqAUohcPvjKwdeb-31" value="标签管理" style="rounded=0;whiteSpace=wrap;html=1;strokeColor=none;" vertex="1" parent="1">
          <mxGeometry x="505" y="670" width="70" height="20" as="geometry" />
        </mxCell>
        <mxCell id="2DUTjnqAUohcPvjKwdeb-32" value="规则定义" style="rounded=0;whiteSpace=wrap;html=1;strokeColor=none;" vertex="1" parent="1">
          <mxGeometry x="505" y="700" width="70" height="20" as="geometry" />
        </mxCell>
        <mxCell id="2DUTjnqAUohcPvjKwdeb-33" value="标签生产" style="rounded=0;whiteSpace=wrap;html=1;fillColor=#E2E2E2;fontColor=#000000;strokeColor=none;align=center;fontStyle=1;fontSize=12;strokeWidth=2;verticalAlign=top;" vertex="1" parent="1">
          <mxGeometry x="600" y="610" width="100" height="120" as="geometry" />
        </mxCell>
        <mxCell id="2DUTjnqAUohcPvjKwdeb-34" value="数据加载" style="rounded=0;whiteSpace=wrap;html=1;strokeColor=none;" vertex="1" parent="1">
          <mxGeometry x="615" y="645" width="70" height="20" as="geometry" />
        </mxCell>
        <mxCell id="2DUTjnqAUohcPvjKwdeb-35" value="标签加工" style="rounded=0;whiteSpace=wrap;html=1;strokeColor=none;" vertex="1" parent="1">
          <mxGeometry x="615" y="670" width="70" height="20" as="geometry" />
        </mxCell>
        <mxCell id="2DUTjnqAUohcPvjKwdeb-36" value="标签质量" style="rounded=0;whiteSpace=wrap;html=1;strokeColor=none;" vertex="1" parent="1">
          <mxGeometry x="615" y="700" width="70" height="20" as="geometry" />
        </mxCell>
        <mxCell id="2DUTjnqAUohcPvjKwdeb-37" value="标签应用" style="rounded=0;whiteSpace=wrap;html=1;fillColor=#E2E2E2;fontColor=#000000;strokeColor=none;align=center;fontStyle=1;fontSize=12;strokeWidth=2;verticalAlign=top;" vertex="1" parent="1">
          <mxGeometry x="710" y="610" width="100" height="120" as="geometry" />
        </mxCell>
        <mxCell id="2DUTjnqAUohcPvjKwdeb-38" value="AI智能" style="rounded=0;whiteSpace=wrap;html=1;strokeColor=none;" vertex="1" parent="1">
          <mxGeometry x="725" y="645" width="70" height="20" as="geometry" />
        </mxCell>
        <mxCell id="2DUTjnqAUohcPvjKwdeb-39" value="模型训练" style="rounded=0;whiteSpace=wrap;html=1;strokeColor=none;" vertex="1" parent="1">
          <mxGeometry x="725" y="670" width="70" height="20" as="geometry" />
        </mxCell>
        <mxCell id="2DUTjnqAUohcPvjKwdeb-40" value="标签画像" style="rounded=0;whiteSpace=wrap;html=1;strokeColor=none;" vertex="1" parent="1">
          <mxGeometry x="725" y="700" width="70" height="20" as="geometry" />
        </mxCell>
        <mxCell id="2DUTjnqAUohcPvjKwdeb-41" value="多源数据接入" style="rounded=0;whiteSpace=wrap;html=1;fontStyle=1;fontSize=14;verticalAlign=top;strokeWidth=2;dashed=1;strokeColor=#FF3333;" vertex="1" parent="1">
          <mxGeometry x="80" y="750" width="170" height="140" as="geometry" />
        </mxCell>
        <mxCell id="2DUTjnqAUohcPvjKwdeb-42" value="数据探查" style="rounded=0;whiteSpace=wrap;html=1;fillColor=#E2E2E2;fontColor=#000000;strokeColor=none;align=center;fontStyle=0;fontSize=12;strokeWidth=2;verticalAlign=middle;" vertex="1" parent="1">
          <mxGeometry x="90" y="790" width="70" height="20" as="geometry" />
        </mxCell>
        <mxCell id="2DUTjnqAUohcPvjKwdeb-43" value="日志数据" style="rounded=0;whiteSpace=wrap;html=1;fillColor=#E2E2E2;fontColor=#000000;strokeColor=none;align=center;fontStyle=0;fontSize=12;strokeWidth=2;verticalAlign=middle;" vertex="1" parent="1">
          <mxGeometry x="170" y="790" width="70" height="20" as="geometry" />
        </mxCell>
        <mxCell id="2DUTjnqAUohcPvjKwdeb-44" value="数据库直连" style="rounded=0;whiteSpace=wrap;html=1;fillColor=#E2E2E2;fontColor=#000000;strokeColor=none;align=center;fontStyle=0;fontSize=12;strokeWidth=2;verticalAlign=middle;" vertex="1" parent="1">
          <mxGeometry x="90" y="825" width="70" height="20" as="geometry" />
        </mxCell>
        <mxCell id="2DUTjnqAUohcPvjKwdeb-45" value="文件同步" style="rounded=0;whiteSpace=wrap;html=1;fillColor=#E2E2E2;fontColor=#000000;strokeColor=none;align=center;fontStyle=0;fontSize=12;strokeWidth=2;verticalAlign=middle;" vertex="1" parent="1">
          <mxGeometry x="170" y="825" width="70" height="20" as="geometry" />
        </mxCell>
        <mxCell id="2DUTjnqAUohcPvjKwdeb-46" value="文件上传" style="rounded=0;whiteSpace=wrap;html=1;fillColor=#E2E2E2;fontColor=#000000;strokeColor=none;align=center;fontStyle=0;fontSize=12;strokeWidth=2;verticalAlign=middle;" vertex="1" parent="1">
          <mxGeometry x="90" y="860" width="70" height="20" as="geometry" />
        </mxCell>
        <mxCell id="2DUTjnqAUohcPvjKwdeb-47" value="消息队列" style="rounded=0;whiteSpace=wrap;html=1;fillColor=#E2E2E2;fontColor=#000000;strokeColor=none;align=center;fontStyle=0;fontSize=12;strokeWidth=2;verticalAlign=middle;" vertex="1" parent="1">
          <mxGeometry x="170" y="860" width="70" height="20" as="geometry" />
        </mxCell>
        <mxCell id="2DUTjnqAUohcPvjKwdeb-48" value="统一标准数据治理体系" style="rounded=0;whiteSpace=wrap;html=1;fontStyle=1;fontSize=14;verticalAlign=top;strokeWidth=2;dashed=1;strokeColor=#FF3333;" vertex="1" parent="1">
          <mxGeometry x="260" y="750" width="320" height="140" as="geometry" />
        </mxCell>
        <mxCell id="2DUTjnqAUohcPvjKwdeb-49" value="元数据管理" style="rounded=0;whiteSpace=wrap;html=1;fillColor=#E2E2E2;fontColor=#000000;strokeColor=none;align=center;fontStyle=1;fontSize=12;strokeWidth=2;verticalAlign=top;" vertex="1" parent="1">
          <mxGeometry x="270" y="780" width="120" height="100" as="geometry" />
        </mxCell>
        <mxCell id="2DUTjnqAUohcPvjKwdeb-50" value="元数据采集" style="rounded=0;whiteSpace=wrap;html=1;strokeColor=none;" vertex="1" parent="1">
          <mxGeometry x="275" y="805" width="70" height="20" as="geometry" />
        </mxCell>
        <mxCell id="2DUTjnqAUohcPvjKwdeb-51" value="元数据分析" style="rounded=0;whiteSpace=wrap;html=1;strokeColor=none;" vertex="1" parent="1">
          <mxGeometry x="275" y="830" width="70" height="20" as="geometry" />
        </mxCell>
        <mxCell id="2DUTjnqAUohcPvjKwdeb-52" value="元数据检索" style="rounded=0;whiteSpace=wrap;html=1;strokeColor=none;" vertex="1" parent="1">
          <mxGeometry x="275" y="856" width="70" height="20" as="geometry" />
        </mxCell>
        <mxCell id="2DUTjnqAUohcPvjKwdeb-53" value="元数据采集" style="rounded=0;whiteSpace=wrap;html=1;" vertex="1" parent="1">
          <mxGeometry x="380" y="900" width="70" height="20" as="geometry" />
        </mxCell>
        <mxCell id="2DUTjnqAUohcPvjKwdeb-54" value="数&lt;div&gt;据&lt;/div&gt;&lt;div&gt;血&lt;/div&gt;&lt;div&gt;缘&lt;/div&gt;" style="rounded=0;whiteSpace=wrap;html=1;strokeColor=none;" vertex="1" parent="1">
          <mxGeometry x="352" y="807" width="30" height="67.5" as="geometry" />
        </mxCell>
      </root>
    </mxGraphModel>
  </diagram>
</mxfile>
